# File created by Blade
# Date/Time:  Wed Jan 21 17:21:41 2015
#---------------------------------------------------------
:version 1.10
:name HOM
:units
  mass 1.0
  length 1.000000
  angle deg
:documentation
     Acclaim Skeleton File
:root
   axis xyz
   order TX TY TZ RX RY RZ
   position 0.000000 0.000000 0.000000
   orientation 0 0 0
:bonedata
   begin
      id 1
      name Spine_dum
      direction 0.000000 1.000000 0.000000
      length 7.067664
      axis 0.0 0.0 0.0 xyz
   end
   begin
      id 2
      name LeftUpLeg_dum
      direction 1.000000 0.000000 0.000000
      length 4.013002
      axis 0.0 0.0 0.0 xyz
   end
   begin
      id 3
      name RightUpLeg_dum
      direction -1.000000 0.000000 0.000000
      length 4.013002
      axis 0.0 0.0 0.0 xyz
   end
   begin
      id 4
      name Spine
      direction 0.000000 1.000000 0.000000
      length 0.000000
      axis 0.0 0.0 0.0 xyz
      dof rx ry rz
   end
   begin
      id 5
      name Spine_dum1
      direction 0.000000 1.000000 0.000000
      length 15.039886
      axis 0.0 0.0 0.0 xyz
   end
   begin
      id 6
      name Spine_dum2
      direction 0.000000 1.000000 0.000000
      length 10.530368
      axis 0.0 0.0 0.0 xyz
   end
   begin
      id 7
      name Spine_dum3
      direction 0.000000 1.000000 0.000000
      length 10.530368
      axis 0.0 0.0 0.0 xyz
   end
   begin
      id 8
      name Head
      direction 0.000000 1.000000 0.000000
      length 4.527550
      axis 0.0 0.0 0.0 xyz
      dof rx ry rz
   end
   begin
      id 9
      name LeftShoulder
      direction 1.000000 0.000000 0.000000
      length 7.028855
      axis 0.0 0.0 -90.0 xyz
      dof rx ry rz
   end
   begin
      id 10
      name LeftArm
      direction 1.000000 0.000000 0.000000
      length 10.797705
      axis 0.0 0.0 -90.0 xyz
      dof rx ry rz
   end
   begin
      id 11
      name LeftForeArm
      direction 1.000000 0.000000 0.000000
      length 7.907442
      axis 0.0 0.0 -90.0 xyz
      dof ry rz rx
   end
   begin
      id 12
      name LeftHand
      direction 0.000000 0.000000 0.000000
      length 0.000000
      axis 0.0 0.0 -90.0 xyz
      dof rx ry rz
   end
   begin
      id 13
      name LeftHand_dum1
      direction 0.000000 0.000000 0.000000
      length 0.000000
      axis 0.0 0.0 -90.0 xyz
   end
   begin
      id 14
      name LeftHand_dum2
      direction 1.000000 0.000000 0.000000
      length 3.937000
      axis 0.0 0.0 -90.0 xyz
   end
   begin
      id 15
      name LeftHandThumb1
      direction 0.000000 0.000000 1.000000
      length 3.937000
      axis 0.0 0.0 -90.0 xyz
      dof rx rz ry
   end
   begin
      id 16
      name RightShoulder
      direction -1.000000 0.000000 0.000000
      length 7.028855
      axis 0.0 0.0 90.0 xyz
      dof rx ry rz
   end
   begin
      id 17
      name RightArm
      direction -1.000000 0.000000 0.000000
      length 10.797705
      axis 0.0 0.0 90.0 xyz
      dof rx ry rz
   end
   begin
      id 18
      name RightForeArm
      direction -1.000000 0.000000 0.000000
      length 7.907442
      axis 0.0 0.0 90.0 xyz
      dof ry rz rx
   end
   begin
      id 19
      name RightHand
      direction 0.000000 0.000000 0.000000
      length 0.000000
      axis 0.0 0.0 90.0 xyz
      dof rx ry rz
   end
   begin
      id 20
      name RightHand_dum1
      direction 0.000000 0.000000 0.000000
      length 0.000000
      axis 0.0 0.0 90.0 xyz
   end
   begin
      id 21
      name RightHand_dum2
      direction -1.000000 0.000000 0.000000
      length 3.937000
      axis 0.0 0.0 90.0 xyz
   end
   begin
      id 22
      name RightHandThumb1
      direction 0.000000 0.000000 1.000000
      length 3.937000
      axis 0.0 0.0 90.0 xyz
      dof rx rz ry
   end
   begin
      id 23
      name LeftUpLeg
      direction 0.000000 -1.000000 0.000000
      length 16.899758
      axis 0.0 0.0 0.0 xyz
      dof rx ry rz
   end
   begin
      id 24
      name LeftLeg
      direction 0.000000 -1.000000 0.000000
      length 17.389183
      axis 0.0 0.0 0.0 xyz
      dof rx ry rz
   end
   begin
      id 25
      name LeftFoot
      direction 0.000000 -0.258819 0.965926
      length 4.924528
      axis 15.0 0.0 0.0 xyz
      dof rx ry rz
   end
   begin
      id 26
      name LeftToeBase
      direction 0.000000 0.000000 1.000000
      length 2.952750
      axis 0.0 0.0 0.0 xyz
      dof rx ry rz
   end
   begin
      id 27
      name RightUpLeg
      direction 0.000000 -1.000000 0.000000
      length 16.899758
      axis 0.0 0.0 0.0 xyz
      dof rx ry rz
   end
   begin
      id 28
      name RightLeg
      direction 0.000000 -1.000000 0.000000
      length 17.389183
      axis 0.0 0.0 0.0 xyz
      dof rx ry rz
   end
   begin
      id 29
      name RightFoot
      direction 0.000000 -0.258819 0.965926
      length 4.924528
      axis 15.0 0.0 0.0 xyz
      dof rx ry rz
   end
   begin
      id 30
      name RightToeBase
      direction 0.000000 0.000000 1.000000
      length 2.952750
      axis 0.0 0.0 0.0 xyz
      dof rx ry rz
   end
:hierarchy
   begin
      root Spine_dum LeftUpLeg_dum RightUpLeg_dum
      Spine_dum Spine
      LeftUpLeg_dum LeftUpLeg
      RightUpLeg_dum RightUpLeg
      Spine Spine_dum1 Spine_dum2 Spine_dum3
      Spine_dum1 Head
      Spine_dum2 LeftShoulder
      Spine_dum3 RightShoulder
      LeftShoulder LeftArm
      LeftArm LeftForeArm
      LeftForeArm LeftHand
      LeftHand LeftHand_dum1 LeftHand_dum2
      LeftHand_dum1 LeftHandThumb1
      RightShoulder RightArm
      RightArm RightForeArm
      RightForeArm RightHand
      RightHand RightHand_dum1 RightHand_dum2
      RightHand_dum1 RightHandThumb1
      LeftUpLeg LeftLeg
      LeftLeg LeftFoot
      LeftFoot LeftToeBase
      RightUpLeg RightLeg
      RightLeg RightFoot
      RightFoot RightToeBase
   end

# File created by Blade
# Date/Time:  Wed Jan 21 17:21:31 2015
# Frame Rate: 120.000 fps
#------------------------------------------------------
:FULLY-SPECIFIED
:DEGREES
146
root 16.152655 35.867719 -18.565415 -178.790537 4.507577 -179.149046
Spine 12.370487 3.976401 -3.015255
Head 22.402303 -4.055366 4.922705
LeftShoulder -3.835193 -21.606801 -2.617725
LeftArm -9.818130 5.372141 -74.924718
LeftForeArm 5.364515 -0.000000 1.150848
LeftHand -2.863006 -0.000000 -3.875950
LeftHandThumb1 -26.253704 0.000000 33.147579
RightShoulder -7.335827 -12.918569 11.071209
RightArm 14.692538 3.341459 69.928386
RightForeArm -25.783253 -0.000000 14.241369
RightHand -2.384015 -0.000000 10.407904
RightHandThumb1 -24.326973 -0.000000 -32.862282
LeftUpLeg 0.557385 11.982487 -1.676831
LeftLeg -3.723552 -0.000000 0.000000
LeftFoot -14.717608 28.638936 -9.031799
LeftToeBase 23.759308 -0.000000 -0.000000
RightUpLeg -12.413868 -12.223988 0.775812
RightLeg 31.087816 -0.000000 -0.000000
RightFoot -31.026502 -23.273362 22.882609
RightToeBase 12.107072 -0.000000 -0.000000
147
root 16.182514 35.863126 -18.564097 -178.803064 4.462232 -179.204264
Spine 12.447919 3.985159 -3.150644
Head 22.451535 -4.110193 4.979952
LeftShoulder -4.003842 -21.479713 -2.519500
LeftArm -10.274446 5.445098 -75.165668
LeftForeArm 4.724973 -0.000000 1.240670
LeftHand -2.745510 -0.000000 -3.709199
LeftHandThumb1 -26.253704 0.000000 33.147579
RightShoulder -7.544959 -13.073485 11.157934
RightArm 14.166534 3.922461 70.482707
RightForeArm -26.144063 0.000000 14.477790
RightHand -2.565057 -0.000000 10.026819
RightHandThumb1 -24.326973 -0.000000 -32.862282
LeftUpLeg 0.448134 12.023448 -1.674395
LeftLeg -3.495926 -0.000000 0.000000
LeftFoot -14.821137 28.533249 -9.039169
LeftToeBase 23.789871 -0.000000 -0.000000
RightUpLeg -12.105857 -12.211044 1.049113
RightLeg 31.309997 -0.000000 -0.000000
RightFoot -31.020388 -22.763180 22.962289
RightToeBase 12.307009 -0.000000 -0.000000
148
root 16.213134 35.858548 -18.563001 -178.816722 4.389039 -179.297710
Spine 12.520375 4.010148 -3.328407
Head 22.513310 -4.157574 5.058262
LeftShoulder -4.159089 -21.283287 -2.425153
LeftArm -10.602415 5.731884 -75.408179
LeftForeArm 3.957557 -0.000000 1.326845
LeftHand -2.828088 -0.000000 -3.565988
LeftHandThumb1 -26.253704 0.000000 33.147579
RightShoulder -7.792124 -13.251668 11.267193
RightArm 13.675883 4.396253 70.971456
RightForeArm -26.345686 0.000000 14.755103
RightHand -2.720064 0.000000 9.567793
RightHandThumb1 -24.326973 -0.000000 -32.862282
LeftUpLeg 0.324088 11.851921 -1.707772
LeftLeg -3.238552 -0.000000 0.000000
LeftFoot -14.952039 28.576934 -9.134075
LeftToeBase 23.817000 -0.000000 -0.000000
RightUpLeg -11.754837 -12.357676 1.256142
RightLeg 31.399240 -0.000000 -0.000000
RightFoot -30.909149 -22.276484 22.958727
RightToeBase 12.498903 -0.000000 -0.000000
149
root 16.253889 35.853343 -18.553967 -178.791034 4.356862 -179.368713
Spine 12.563354 4.096681 -3.512830
Head 22.555836 -4.293579 5.165419
LeftShoulder -4.281403 -21.114726 -2.291433
LeftArm -10.949566 6.044665 -75.658271
LeftForeArm 3.349713 -0.000000 1.435214
LeftHand -2.870973 -0.000000 -3.529623
LeftHandThumb1 -26.253704 0.000000 33.147579
RightShoulder -8.046589 -13.362658 11.378411
RightArm 13.152447 4.749979 71.441027
RightForeArm -26.465124 0.000000 15.032868
RightHand -2.869859 -0.000000 8.965108
RightHandThumb1 -24.326973 -0.000000 -32.862282
LeftUpLeg 0.159695 11.952202 -1.723656
LeftLeg -3.020068 -0.000000 0.000000
LeftFoot -15.063822 28.436107 -9.230468
LeftToeBase 23.899191 -0.000000 -0.000000
RightUpLeg -11.428247 -12.364379 1.511575
RightLeg 31.370865 -0.000000 -0.000000
RightFoot -30.803816 -21.762775 22.999655
RightToeBase 12.533922 -0.000000 -0.000000
150
root 16.289308 35.847207 -18.548599 -178.783274 4.384797 -179.473971
Spine 12.615179 4.180229 -3.731341
Head 22.574471 -4.363555 5.249610
LeftShoulder -4.478931 -20.967476 -2.141703
LeftArm -11.276535 6.392958 -75.883729
LeftForeArm 2.786813 -0.000000 1.529446
LeftHand -2.891355 0.000000 -3.447399
LeftHandThumb1 -26.253704 0.000000 33.147579
RightShoulder -8.237314 -13.519576 11.473431
RightArm 12.667229 4.994334 71.836573
RightForeArm -26.470951 -0.000000 15.336544
RightHand -2.940932 0.000000 8.379288
RightHandThumb1 -24.326973 -0.000000 -32.862282
LeftUpLeg 0.034692 11.886421 -1.774329
LeftLeg -2.810600 -0.000000 0.000000
LeftFoot -15.187362 28.504059 -9.346223
LeftToeBase 23.910157 -0.000000 -0.000000
RightUpLeg -11.042555 -12.505006 1.691583
RightLeg 31.199165 -0.000000 -0.000000
RightFoot -30.650921 -21.201452 22.928401
RightToeBase 12.687564 -0.000000 -0.000000
151
root 16.325033 35.841004 -18.557144 -178.843794 4.353503 -179.539637
Spine 12.706550 4.199022 -3.852437
Head 22.700842 -4.411093 5.255181
LeftShoulder -4.670910 -20.748728 -2.073673
LeftArm -11.555774 6.814102 -76.069708
LeftForeArm 2.306484 -0.000000 1.653379
LeftHand -2.829296 -0.000000 -3.239537
LeftHandThumb1 -26.253704 0.000000 33.147579
RightShoulder -8.411006 -13.668472 11.512442
RightArm 12.163362 5.255079 72.219894
RightForeArm -26.413811 -0.000000 15.696285
RightHand -3.159461 0.000000 7.819992
RightHandThumb1 -24.326973 -0.000000 -32.862282
LeftUpLeg -0.015209 11.812320 -1.763691
LeftLeg -2.562626 -0.000000 0.000000
LeftFoot -15.229055 28.541531 -9.185487
LeftToeBase 23.935753 -0.000000 -0.000000
RightUpLeg -10.486368 -12.748897 1.865010
RightLeg 30.812310 -0.000000 -0.000000
RightFoot -30.418002 -20.698931 22.732806
RightToeBase 12.886138 -0.000000 -0.000000
